# xmcd
#
# Track frame offsets: 
#        150
#        16627
#        31269
#        52985
#        67455
#        84342
#        99330
#        114560
#        130870
#        147152
#
# Disc length: 2154 seconds
#
# Revision: 1
# Processed by: cddbd v1.5.2PL0 Copyright (c) Steve Scherf et al.
# Submitted via: ExactAudioCopy v1.0b3
#
DISCID=7c08680a
DTITLE=Z.Z. Hill - The Rhythum and The Blues
DYEAR=1982
DGENRE=Blues
TTITLE0=Someone Else Is Steppin' In
TTITLE1=What Am I Gonna Tell Her
TTITLE2=Open House At My House
TTITLE3=Who You Been Giving It To
TTITLE4=That Fire Is Hot
TTITLE5=Wang Dang Doodle
TTITLE6=Outside Thang
TTITLE7=You're Gonna Be A Woman
TTITLE8=Help ME, I'm In Need
TTITLE9=Get You Some Business
EXTD=YEAR: 1982
EXTT0=
EXTT1=
EXTT2=
EXTT3=
EXTT4=
EXTT5=
EXTT6=
EXTT7=
EXTT8=
EXTT9=
PLAYORDER=
